<svg id="Layer_1" data-name="Layer 1" xmlns="http://www.w3.org/2000/svg" viewBox="0 0 493.72 405.79">
    <defs>
        <style>
            .cls-1, .cls-3, .cls-4 {
                fill: none;
            }

            .cls-1 {
                stroke: #9ea3a7;
            }

            .cls-1, .cls-2, .cls-3, .cls-4 {
                stroke-miterlimit: 10;
            }

            .cls-2 {
                fill: #969da0;
            }

            .cls-2, .cls-3 {
                stroke: #989d9f;
            }

            .cls-4 {
                stroke: #979da0;
            }

            .cls-5 {
                fill: #979da0;
            }
        </style>
    </defs>
    <g class="particles-group-1">
        <line class="cls-1" x1="150.28" y1="108.35" x2="159.03" y2="102.1"/>
        <line class="cls-1" x1="325.51" y1="118.98" x2="334.26" y2="112.73"/>
        <line class="cls-1" x1="483.33" y1="94.52" x2="492.08" y2="88.27"/>
        <line class="cls-1" x1="321.14" y1="279.22" x2="329.89" y2="272.97"/>
        <line class="cls-1" x1="148.47" y1="279.22" x2="157.22" y2="272.97"/>
        <line class="cls-1" x1="11.14" y1="305.17" x2="19.89" y2="298.92"/>
    </g>
    <g class="particles-group-2">
        <path class="cls-1" d="M51.78,105.64s-.37-12.75,5.25-3.5.38,7.13,0,7.13" transform="translate(-3.14 -1.85)"/>
        <path class="cls-1" d="M229.34,103.24s-.37-12.75,5.25-3.5.38,7.12,0,7.12" transform="translate(-3.14 -1.85)"/>
        <path class="cls-1" d="M401,103.24s-.37-12.75,5.25-3.5.38,7.12,0,7.12" transform="translate(-3.14 -1.85)"/>
        <path class="cls-1" d="M401,274.1s-.37-12.75,5.25-3.5.38,7.13,0,7.13" transform="translate(-3.14 -1.85)"/>
        <path class="cls-1" d="M227.33,276.14s-.37-12.75,5.25-3.5.38,7.13,0,7.13" transform="translate(-3.14 -1.85)"/>
        <path class="cls-1" d="M55.49,276.14s-.37-12.75,5.25-3.5.38,7.13,0,7.13" transform="translate(-3.14 -1.85)"/>
        <path class="cls-1" d="M97.76,41.59s-2.5,4.83,2.83,2.33.67,2.67.67,2.67" transform="translate(-3.14 -1.85)"/>
        <path class="cls-1" d="M448.14,22.85s-2.5,4.83,2.83,2.33.67,2.67.67,2.67" transform="translate(-3.14 -1.85)"/>
        <path class="cls-1" d="M246,44.18s.1,5.85,4.41-.28,2.26,1.66,2.26,1.66" transform="translate(-3.14 -1.85)"/>
    </g>
    <g class="particles-group-3">
        <circle class="cls-2" cx="4.77" cy="151" r="1.14" transform="translate(-108.51 45.76) rotate(-45)"/>
        <circle class="cls-2" cx="149.72" cy="30.16" r="1.14" transform="translate(19.39 112.85) rotate(-45)"/>
        <circle class="cls-2" cx="304.7" cy="3.48" r="1.14" transform="translate(83.64 214.63) rotate(-45)"/>
        <circle class="cls-2" cx="495.22" cy="155.04" r="1.14" transform="translate(32.28 393.74) rotate(-45)"/>
        <circle class="cls-2" cx="315.2" cy="163.8" r="1.14" transform="translate(-26.64 269.01) rotate(-45)"/>
        <circle class="cls-2" cx="153.42" cy="344.7" r="1.14" transform="translate(-201.94 207.59) rotate(-45)"/>
        <circle class="cls-2" cx="249.61" cy="406" r="1.14" transform="translate(-217.11 293.57) rotate(-45)"/>
        <circle class="cls-2" cx="313.32" cy="336.94" r="1.14" transform="translate(-149.62 318.39) rotate(-45)"/>
        <circle class="cls-2" cx="148.58" cy="172.2" r="1.14" transform="translate(-81.38 153.65) rotate(-45)"/>
    </g>
    <g class="particles-group-4">
        <polyline class="cls-3" points="200.87 18.34 197.2 18.34 199.03 21"/>
        <polyline class="cls-3" points="179.66 368.64 180.47 364.7 176.12 365.86"/>
        <polyline class="cls-3" points="369.87 368.64 370.67 364.7 366.31 365.86"/>
        <polyline class="cls-3" points="369.31 5.73 371.83 1.9 367.27 1.65"/>
        <polyline class="cls-3" points="217.7 153.19 210.32 153.19 214.01 158.56"/>
        <polyline class="cls-3" points="385.03 153.19 377.66 153.19 381.34 158.56"/>
        <polyline class="cls-3" points="385.03 324.15 377.66 324.15 381.34 329.52"/>
        <polyline class="cls-3" points="213.01 324.15 205.64 324.15 209.32 329.52"/>
        <polyline class="cls-3" points="52.35 324.15 44.98 324.15 48.66 329.52"/>
    </g>
    <g class="particles-group-5">
        <path class="cls-4" d="M264.48,188.12s-4,8.83,3.33,6.17,5.67-.5,5.67-.5-1.33,3.67-2.17,3.5" transform="translate(-3.14 -1.85)"/>
        <path class="cls-4" d="M444.52,179.07s-4,8.83,3.33,6.17,5.67-.5,5.67-.5-1.33,3.67-2.17,3.5" transform="translate(-3.14 -1.85)"/>
        <path class="cls-4" d="M94.23,196.91s-4,8.83,3.33,6.17,5.67-.5,5.67-.5-1.33,3.67-2.17,3.5" transform="translate(-3.14 -1.85)"/>
        <path class="cls-4" d="M92.81,369.86s-2.63,6.55,2.19,4.57,3.73-.37,3.73-.37-.88,2.72-1.43,2.6" transform="translate(-3.14 -1.85)"/>
        <path class="cls-4" d="M269.94,368.71c.06-.09,3.2,5.44,4.68,2,2-4.8,2.54-2.76,2.54-2.76s1.15,2.61.66,2.89" transform="translate(-3.14 -1.85)"/>
    </g>
    <g class="particles-group-6">
        <polyline class="cls-5" points="8.58 76.55 13.71 78.42 12.58 72.8"/>
        <polyline class="cls-5" points="8.58 228.65 13.71 230.53 12.58 224.9"/>
        <polyline class="cls-5" points="178.55 238.99 183.68 240.86 182.55 235.24"/>
        <polyline class="cls-5" points="349.47 240.53 354.59 242.4 353.47 236.78"/>
        <polyline class="cls-5" points="338.72 402.28 343.84 404.15 342.72 398.53"/>
        <polyline class="cls-5" points="147.72 399.46 152.84 401.34 151.72 395.71"/>
        <polyline class="cls-5" points="482.39 209.27 485.95 213.4 487.71 207.94"/>
        <polyline class="cls-5" points="349.58 66.58 354.83 68.06 353.29 62.54"/>
    </g>
</svg>
