<svg id="Layer_1" data-name="Layer 1" xmlns="http://www.w3.org/2000/svg" viewBox="0 0 795.7 22">
  <defs>
    <style>
      .cls-1 {
        fill: #FFF;
      }
    </style>
  </defs>
  <title>ez123-dots</title>
  <path class="cls-1" d="M2,1V23h795.7V1ZM12.27,16a3.52,3.52,0,1,1,3.52-3.52A3.52,3.52,0,0,1,12.27,16Zm12.67,0a3.52,3.52,0,1,1,3.52-3.52A3.52,3.52,0,0,1,24.94,16ZM37.5,16A3.52,3.52,0,1,1,41,12.52,3.52,3.52,0,0,1,37.5,16Zm12.67,0a3.52,3.52,0,1,1,3.52-3.52A3.52,3.52,0,0,1,50.17,16Zm12.19,0a3.52,3.52,0,1,1,3.52-3.52A3.52,3.52,0,0,1,62.35,16Zm12.48,0a3.52,3.52,0,1,1,3.52-3.52A3.52,3.52,0,0,1,74.83,16ZM87.5,16A3.52,3.52,0,1,1,91,12.52,3.52,3.52,0,0,1,87.5,16Zm12.17,0a3.52,3.52,0,1,1,3.52-3.52A3.52,3.52,0,0,1,99.67,16Zm12.48,0a3.52,3.52,0,1,1,3.52-3.52A3.52,3.52,0,0,1,112.15,16Zm12.67,0a3.52,3.52,0,1,1,3.52-3.52A3.52,3.52,0,0,1,124.81,16ZM137,16a3.52,3.52,0,1,1,3.52-3.52A3.52,3.52,0,0,1,137,16Zm12.48,0A3.52,3.52,0,1,1,153,12.52,3.52,3.52,0,0,1,149.48,16Zm12.67,0a3.52,3.52,0,1,1,3.52-3.52A3.52,3.52,0,0,1,162.15,16Zm12.71,0a3.52,3.52,0,1,1,3.52-3.52A3.52,3.52,0,0,1,174.86,16Zm12.48,0a3.52,3.52,0,1,1,3.52-3.52A3.52,3.52,0,0,1,187.33,16ZM200,16a3.52,3.52,0,1,1,3.52-3.52A3.52,3.52,0,0,1,200,16Zm12.19,0a3.52,3.52,0,1,1,3.52-3.52A3.52,3.52,0,0,1,212.19,16Zm12.48,0a3.52,3.52,0,1,1,3.52-3.52A3.52,3.52,0,0,1,224.67,16Zm12.67,0a3.52,3.52,0,1,1,3.52-3.52A3.52,3.52,0,0,1,237.33,16Zm12.17,0A3.52,3.52,0,1,1,253,12.52,3.52,3.52,0,0,1,249.5,16ZM262,16a3.52,3.52,0,1,1,3.52-3.52A3.52,3.52,0,0,1,262,16Zm12.67,0a3.52,3.52,0,1,1,3.52-3.52A3.52,3.52,0,0,1,274.65,16Zm12.19,0a3.52,3.52,0,1,1,3.52-3.52A3.52,3.52,0,0,1,286.83,16Zm12.48,0a3.52,3.52,0,1,1,3.52-3.52A3.52,3.52,0,0,1,299.31,16ZM312,16a3.52,3.52,0,1,1,3.52-3.52A3.52,3.52,0,0,1,312,16Zm12.92,0a3.52,3.52,0,1,1,3.52-3.52A3.52,3.52,0,0,1,324.9,16Zm12.48,0a3.52,3.52,0,1,1,3.52-3.52A3.52,3.52,0,0,1,337.38,16ZM350,16a3.52,3.52,0,1,1,3.52-3.52A3.52,3.52,0,0,1,350,16Zm12.19,0a3.52,3.52,0,1,1,3.52-3.52A3.52,3.52,0,0,1,362.23,16Zm12.48,0a3.52,3.52,0,1,1,3.52-3.52A3.52,3.52,0,0,1,374.71,16Zm12.67,0a3.52,3.52,0,1,1,3.52-3.52A3.52,3.52,0,0,1,387.38,16Zm12.17,0a3.52,3.52,0,1,1,3.52-3.52A3.52,3.52,0,0,1,399.54,16ZM412,16a3.52,3.52,0,1,1,3.52-3.52A3.52,3.52,0,0,1,412,16Zm12.67,0a3.52,3.52,0,1,1,3.52-3.52A3.52,3.52,0,0,1,424.69,16Zm12.19,0a3.52,3.52,0,1,1,3.52-3.52A3.52,3.52,0,0,1,436.88,16Zm12.48,0a3.52,3.52,0,1,1,3.52-3.52A3.52,3.52,0,0,1,449.35,16ZM462,16a3.52,3.52,0,1,1,3.52-3.52A3.52,3.52,0,0,1,462,16Zm12.71,0a3.52,3.52,0,1,1,3.52-3.52A3.52,3.52,0,0,1,474.73,16Zm12.48,0a3.52,3.52,0,1,1,3.52-3.52A3.52,3.52,0,0,1,487.21,16Zm12.67,0a3.52,3.52,0,1,1,3.52-3.52A3.52,3.52,0,0,1,499.88,16Zm12.19,0a3.52,3.52,0,1,1,3.52-3.52A3.52,3.52,0,0,1,512.06,16Zm12.48,0a3.52,3.52,0,1,1,3.52-3.52A3.52,3.52,0,0,1,524.54,16Zm12.67,0a3.52,3.52,0,1,1,3.52-3.52A3.52,3.52,0,0,1,537.21,16Zm12.17,0a3.52,3.52,0,1,1,3.52-3.52A3.52,3.52,0,0,1,549.38,16Zm12.48,0a3.52,3.52,0,1,1,3.52-3.52A3.52,3.52,0,0,1,561.86,16Zm12.67,0A3.52,3.52,0,1,1,578,12.52,3.52,3.52,0,0,1,574.52,16Zm12.19,0a3.52,3.52,0,1,1,3.52-3.52A3.52,3.52,0,0,1,586.71,16Zm12.48,0a3.52,3.52,0,1,1,3.52-3.52A3.52,3.52,0,0,1,599.19,16Zm12.67,0a3.52,3.52,0,1,1,3.52-3.52A3.52,3.52,0,0,1,611.86,16ZM625,16a3.52,3.52,0,1,1,3.52-3.52A3.52,3.52,0,0,1,625,16Zm12.48,0A3.52,3.52,0,1,1,641,12.52,3.52,3.52,0,0,1,637.5,16Zm12.67,0a3.52,3.52,0,1,1,3.52-3.52A3.52,3.52,0,0,1,650.17,16Zm12.17,0a3.52,3.52,0,1,1,3.52-3.52A3.52,3.52,0,0,1,662.33,16Zm12.48,0a3.52,3.52,0,1,1,3.52-3.52A3.52,3.52,0,0,1,674.81,16Zm12.67,0A3.52,3.52,0,1,1,691,12.52,3.52,3.52,0,0,1,687.48,16Zm12.19,0a3.52,3.52,0,1,1,3.52-3.52A3.52,3.52,0,0,1,699.66,16Zm12.48,0a3.52,3.52,0,1,1,3.52-3.52A3.52,3.52,0,0,1,712.14,16Zm12.67,0a3.52,3.52,0,1,1,3.52-3.52A3.52,3.52,0,0,1,724.81,16Zm12.67,0A3.52,3.52,0,1,1,741,12.52,3.52,3.52,0,0,1,737.48,16Zm12.19,0a3.52,3.52,0,1,1,3.52-3.52A3.52,3.52,0,0,1,749.66,16Zm12.48,0a3.52,3.52,0,1,1,3.52-3.52A3.52,3.52,0,0,1,762.14,16Zm12.67,0a3.52,3.52,0,1,1,3.52-3.52A3.52,3.52,0,0,1,774.81,16ZM788,16a3.52,3.52,0,1,1,3.52-3.52A3.52,3.52,0,0,1,788,16Z" transform="translate(-1.96 -1)"/>
</svg>
