<?xml version="1.0" ?><!DOCTYPE svg  PUBLIC '-//W3C//DTD SVG 1.1//EN'  'http://www.w3.org/Graphics/SVG/1.1/DTD/svg11.dtd'><svg enable-background="new 0 0 24 24" height="24px" id="Layer_1" version="1.1" viewBox="0 0 24 24" width="24px" xml:space="preserve" xmlns="http://www.w3.org/2000/svg" xmlns:xlink="http://www.w3.org/1999/xlink"><path d="M12,0C7,0,3,4,3,9c0,4,6,9,6,9h1v1c-0.6,0-1,0.4-1,1v3c0,0.6,0.4,1,1,1h4c0.6,0,1-0.4,1-1v-3c0-0.6-0.4-1-1-1v-1h1  c0,0,6-5,6-9C21,4,17,0,12,0z M14,23h-4v-3h4V23z M11,19v-1h2v1H11z M14.2,16H9.8c-1-1-2-2-2.9-3h10.2C16.2,14,15.2,15,14.2,16z   M17.8,12H6.2c-0.7-0.9-0.8-1-1-2h13.6C18.6,11,18.5,11.1,17.8,12z M5,9c0,0,0-0.1,0-0.1C5,5,8.1,1.9,12,1.9s7,3,7,6.9  C19,8.9,19,9,19,9H5z"/></svg>