<?xml version="1.0" ?><!DOCTYPE svg  PUBLIC '-//W3C//DTD SVG 1.1//EN'  'http://www.w3.org/Graphics/SVG/1.1/DTD/svg11.dtd'><svg enable-background="new 0 0 100 100" version="1.1" viewBox="0 0 100 100" xml:space="preserve" xmlns="http://www.w3.org/2000/svg" xmlns:xlink="http://www.w3.org/1999/xlink"><g id="GRID"/><g id="Layer_2"><path d="M42.7,33.6H57c0.8,0,1.5-0.7,1.5-1.5s-0.7-1.5-1.5-1.5H42.7c-0.8,0-1.5,0.7-1.5,1.5S41.9,33.6,42.7,33.6z"/><path d="M42.7,43.6H57c0.8,0,1.5-0.7,1.5-1.5s-0.7-1.5-1.5-1.5H42.7c-0.8,0-1.5,0.7-1.5,1.5S41.9,43.6,42.7,43.6z"/><path d="M53.2,50.6h-6.3c-0.8,0-1.5,0.7-1.5,1.5s0.7,1.5,1.5,1.5h6.3c0.8,0,1.5-0.7,1.5-1.5S54,50.6,53.2,50.6z"/><path d="M81.5,37.6c0-0.1,0-0.1,0-0.2c0,0,0,0,0,0c0,0,0,0,0-0.1c0-0.1,0-0.1-0.1-0.2c0,0,0,0,0,0c0,0,0,0,0,0   c0-0.1-0.1-0.1-0.1-0.2c0,0,0,0,0,0c0,0,0,0,0,0c0-0.1-0.1-0.1-0.1-0.2c0,0,0,0,0,0c0,0,0,0,0,0c0,0,0,0,0,0c0,0-0.1-0.1-0.1-0.1   l-9.4-7.7V22c0-0.8-0.7-1.5-1.5-1.5h-8.6L51.1,12c-0.6-0.5-1.3-0.5-1.9,0l-10.4,8.5h-8.9c-0.8,0-1.5,0.7-1.5,1.5v7.1l-9,7.4   c0,0-0.1,0.1-0.1,0.1c0,0,0,0-0.1,0.1c0,0,0,0,0,0c0,0,0,0,0,0c0,0-0.1,0.1-0.1,0.1c0,0,0,0,0,0c0,0,0,0,0,0c0,0.1-0.1,0.1-0.1,0.2   c0,0,0,0,0,0c0,0,0,0,0,0c0,0.1,0,0.1-0.1,0.2c0,0,0,0,0,0.1c0,0,0,0,0,0c0,0.1,0,0.1,0,0.2c0,0,0,0,0,0.1v39.9   c0,0.8,0.7,1.5,1.5,1.5H80c0.8,0,1.5-0.7,1.5-1.5L81.5,37.6C81.5,37.6,81.5,37.6,81.5,37.6z M75.8,36.1h-4.2v-3.5L75.8,36.1z    M28.3,42.5l-4-3.4h4V42.5z M71.6,39.1h4.3l-4.3,3.7V39.1z M50.1,15.1l6.6,5.4H43.5L50.1,15.1z M31.3,26.6v-3.1h3.8h4.7h20.6h4.7   h3.4v2.8v3.9v14.7L50,60.6L31.3,44.9v-7.2c0,0,0,0,0,0s0,0,0,0v-7.1V26.6z M28.3,36.1h-3.9l3.9-3.2V36.1z M78.5,76.1H21.8V40.9   l19.8,16.9l-8.4,5.4c-0.7,0.5-0.9,1.4-0.4,2.1c0.3,0.4,0.8,0.7,1.3,0.7c0.3,0,0.6-0.1,0.8-0.2l9.1-5.9l5.1,4.3c0,0,0,0,0,0   c0.1,0.1,0.3,0.2,0.4,0.2c0,0,0.1,0,0.1,0c0.1,0,0.3,0.1,0.5,0.1c0,0,0,0,0,0c0,0,0,0,0,0s0,0,0,0c0,0,0,0,0,0c0.2,0,0.3,0,0.4-0.1   c0,0,0.1,0,0.1,0c0.1-0.1,0.3-0.1,0.4-0.2c0,0,0,0,0,0l4.9-4.1l8.8,5.7c0.3,0.2,0.5,0.2,0.8,0.2c0.5,0,1-0.2,1.3-0.7   c0.4-0.7,0.3-1.6-0.4-2.1L58.3,58l20.2-17.1V76.1z"/></g></svg>