<?xml version="1.0" ?><svg enable-background="new 0 0 500 500" id="Layer_1" version="1.1" viewBox="0 0 500 500" xml:space="preserve" xmlns="http://www.w3.org/2000/svg" xmlns:xlink="http://www.w3.org/1999/xlink"><g><g><polygon points="469.5,359.5 414.8,359.5 414.8,332.1 442.1,332.1 442.1,252.2 418.6,181.5 318.9,181.5 318.9,332.1 332.6,332.1     332.6,359.5 291.6,359.5 291.6,154.1 438.3,154.1 469.5,247.7   "/></g><g><path d="M373.7,400.5c-30.2,0-54.8-24.6-54.8-54.8s24.6-54.8,54.8-54.8c30.2,0,54.8,24.6,54.8,54.8S403.9,400.5,373.7,400.5z     M373.7,318.4c-15.1,0-27.4,12.3-27.4,27.4c0,15.1,12.3,27.4,27.4,27.4c15.1,0,27.4-12.3,27.4-27.4    C401.1,330.7,388.8,318.4,373.7,318.4z"/></g><g><polygon points="318.9,359.5 182.1,359.5 182.1,332.1 291.6,332.1 291.6,126.8 58.9,126.8 58.9,332.1 99.9,332.1 99.9,359.5     31.5,359.5 31.5,99.4 318.9,99.4   "/></g><g><path d="M141,400.5c-30.2,0-54.8-24.6-54.8-54.8S110.8,291,141,291s54.8,24.6,54.8,54.8S171.2,400.5,141,400.5z M141,318.4    c-15.1,0-27.4,12.3-27.4,27.4c0,15.1,12.3,27.4,27.4,27.4s27.4-12.3,27.4-27.4C168.4,330.7,156.1,318.4,141,318.4z"/></g><g><polygon points="168.4,269.3 103.9,204.9 123.3,185.5 168.4,230.6 240.8,158.2 260.2,177.5   "/></g></g></svg>