<?xml version="1.0" ?><!DOCTYPE svg  PUBLIC '-//W3C//DTD SVG 1.1//EN'  'http://www.w3.org/Graphics/SVG/1.1/DTD/svg11.dtd'><svg enable-background="new 0 0 24 24" height="24px" id="Layer_1" version="1.1" viewBox="0 0 24 24" width="24px" xml:space="preserve" xmlns="http://www.w3.org/2000/svg" xmlns:xlink="http://www.w3.org/1999/xlink"><g><path d="M23,8h-4V1c0-0.6-0.7-1-1.2-1h-12C5.2,0,5,0.4,5,1v7H1C0.4,8,0,8.4,0,9v15h24V9C24,8.4,23.6,8,23,8z M14,22h-4v-4h4V22z    M22,22h-7v-5H9v5H2V10h5V2h10v8h5V22z"/><rect height="2" width="2" x="13" y="13"/><rect height="2" width="2" x="9" y="13"/><rect height="2" width="2" x="5" y="13"/><rect height="2" width="2" x="17" y="13"/><rect height="2" width="2" x="17" y="17"/><rect height="2" width="2" x="5" y="17"/><polygon points="13,4 11,4 11,6 9,6 9,8 11,8 11,10 13,10 13,8 15,8 15,6 13,6  "/></g></svg>