<?xml version="1.0" standalone="no"?>
<!DOCTYPE svg PUBLIC "-//W3C//DTD SVG 20010904//EN"
 "http://www.w3.org/TR/2001/REC-SVG-20010904/DTD/svg10.dtd">
<svg version="1.0" xmlns="http://www.w3.org/2000/svg"
 width="618.000000pt" height="835.000000pt" viewBox="0 0 618.000000 835.000000"
 preserveAspectRatio="xMidYMid meet">
<metadata>
Created by potrace 1.15, written by Peter Selinger 2001-2017
</metadata>
<g transform="translate(0.000000,835.000000) scale(0.100000,-0.100000)"
fill="#FFFFFF" stroke="none">
<path d="M1803 8336 c-99 -31 -73 -5 -865 -896 -305 -344 -627 -706 -716 -805
-98 -110 -172 -202 -189 -235 l-28 -55 0 -3060 0 -3060 28 -57 c32 -64 80
-111 146 -142 l46 -21 1670 0 1670 0 46 21 c66 31 114 78 146 142 24 48 28 70
28 137 0 67 -4 89 -28 137 -32 64 -80 111 -146 142 l-46 21 -1477 3 -1478 2 0
2575 0 2574 678 3 c667 3 678 3 723 24 67 31 124 87 156 152 l28 57 3 878 2
877 1685 0 1685 0 2 -1872 3 -1873 28 -57 c53 -109 143 -163 272 -163 67 0 89
4 137 28 64 32 111 80 142 146 l21 46 0 2060 0 2060 -28 57 c-32 64 -80 111
-146 142 l-46 21 -2055 2 c-1671 1 -2063 -1 -2097 -11z m-216 -1963 c-2 -2
-175 -2 -384 -1 l-381 3 167 186 c91 102 263 295 381 429 l215 243 3 -428 c1
-235 1 -430 -1 -432z"/>
<path d="M5760 2973 c-63 -23 -152 -114 -173 -177 -40 -117 -14 -231 72 -317
72 -71 132 -94 235 -87 117 8 195 59 245 160 27 52 31 72 31 138 0 124 -55
216 -164 272 -55 29 -182 34 -246 11z"/>
<path d="M5760 1783 c-70 -25 -154 -115 -175 -188 -34 -114 -6 -230 73 -309
59 -60 105 -79 202 -84 81 -4 88 -2 150 30 71 37 129 102 149 168 6 20 11 69
11 107 0 168 -131 294 -303 292 -34 0 -82 -8 -107 -16z"/>
<path d="M4576 594 c-66 -21 -156 -110 -179 -178 -25 -73 -22 -170 7 -231 34
-73 69 -110 138 -144 52 -27 72 -31 138 -31 169 0 287 109 298 276 7 103 -16
163 -88 236 -43 43 -69 60 -110 72 -66 20 -139 19 -204 0z"/>
<path d="M5790 601 c-131 -43 -209 -142 -218 -276 -11 -177 117 -315 294 -315
99 0 158 23 220 84 61 62 84 121 84 220 0 119 -61 216 -168 267 -48 24 -167
35 -212 20z"/>
</g>
</svg>
