<?xml version="1.0" standalone="no"?>
<!DOCTYPE svg PUBLIC "-//W3C//DTD SVG 20010904//EN"
 "http://www.w3.org/TR/2001/REC-SVG-20010904/DTD/svg10.dtd">
<svg version="1.0" xmlns="http://www.w3.org/2000/svg"
 width="867.000000pt" height="837.000000pt" viewBox="0 0 867.000000 837.000000"
 preserveAspectRatio="xMidYMid meet">
<metadata>
Created by potrace 1.15, written by Peter Selinger 2001-2017
</metadata>
<g transform="translate(0.000000,837.000000) scale(0.100000,-0.100000)"
fill="#FFFFFF" stroke="none">
<path d="M190 8353 c-28 -10 -66 -37 -101 -72 -99 -100 -89 275 -89 -3326 0
-3601 -10 -3226 89 -3326 93 -93 61 -89 758 -89 l603 0 0 -648 c0 -748 -4
-709 89 -803 38 -38 72 -61 105 -72 67 -23 182 -22 245 2 53 20 137 72 900
566 343 222 537 347 621 401 41 26 163 105 270 175 107 69 283 183 390 252
l195 127 2081 0 c2366 0 2136 -9 2235 89 98 99 89 -112 89 2086 0 2198 9 1987
-89 2086 -66 66 -124 89 -221 89 -97 0 -155 -23 -221 -89 -98 -98 -89 87 -89
-1893 l0 -1738 -1989 0 c-1468 0 -1997 -3 -2022 -11 -19 -7 -112 -62 -207
-123 -339 -218 -502 -323 -731 -471 -127 -82 -298 -193 -379 -245 -159 -102
-422 -271 -566 -364 l-88 -58 3 529 4 528 -23 47 c-13 26 -46 67 -73 92 -87
78 -65 76 -746 76 l-603 0 0 2785 0 2785 1943 0 c2211 0 1999 -9 2098 89 66
66 89 124 89 221 0 100 -23 154 -94 226 -105 104 142 94 -2295 93 -1923 -1
-2140 -2 -2181 -16z"/>
<path d="M5742 8329 c-66 -33 -109 -77 -144 -149 -32 -66 -31 -196 2 -265 29
-59 84 -116 142 -147 37 -20 58 -23 143 -23 93 0 104 2 155 31 217 122 211
442 -11 553 -54 27 -72 31 -144 31 -71 0 -90 -4 -143 -31z"/>
<path d="M6983 8330 c-109 -55 -173 -158 -173 -280 0 -123 64 -226 175 -281
59 -29 70 -31 147 -27 96 4 153 27 213 86 121 119 120 328 -1 446 -63 62 -107
79 -209 84 -85 3 -93 2 -152 -28z"/>
<path d="M8240 8343 c-63 -23 -151 -113 -173 -177 -10 -28 -17 -80 -17 -120 0
-174 132 -306 306 -306 101 0 158 22 225 89 66 66 89 124 89 221 0 37 -8 89
-17 116 -23 67 -110 154 -177 177 -62 21 -176 21 -236 0z"/>
<path d="M8293 7120 c-65 -14 -116 -45 -166 -100 -56 -62 -77 -122 -77 -215 0
-119 61 -218 173 -277 35 -19 58 -23 137 -23 80 0 102 4 138 23 63 33 114 84
142 139 22 42 25 61 25 148 0 83 -4 107 -22 140 -66 124 -214 194 -350 165z"/>
</g>
</svg>
