<?xml version="1.0" standalone="no"?>
<!DOCTYPE svg PUBLIC "-//W3C//DTD SVG 20010904//EN"
 "http://www.w3.org/TR/2001/REC-SVG-20010904/DTD/svg10.dtd">
<svg version="1.0" xmlns="http://www.w3.org/2000/svg"
 width="746.000000pt" height="930.000000pt" viewBox="0 0 746.000000 930.000000"
 preserveAspectRatio="xMidYMid meet">
<metadata>
Created by potrace 1.15, written by Peter Selinger 2001-2017
</metadata>
<g transform="translate(0.000000,930.000000) scale(0.100000,-0.100000)"
fill="#FFFFFF" stroke="none">
<path d="M203 9282 c-101 -36 -172 -115 -193 -216 -8 -36 -10 -795 -8 -2666
l3 -2615 28 -57 c53 -109 143 -163 272 -163 129 0 219 54 272 163 l28 57 3
2328 c1 1280 4 2327 7 2327 3 0 36 -19 73 -41 195 -120 277 -171 532 -329 809
-502 1132 -702 1383 -857 94 -58 195 -121 222 -138 28 -18 127 -79 220 -137
94 -58 247 -152 340 -210 196 -122 589 -364 720 -445 50 -31 113 -70 140 -88
28 -18 104 -65 170 -105 66 -40 143 -88 170 -105 28 -18 129 -81 225 -140 175
-108 340 -211 693 -429 103 -64 271 -168 375 -232 103 -64 261 -162 352 -219
91 -56 209 -129 262 -162 l97 -61 -212 -143 c-116 -78 -279 -188 -362 -244
-162 -109 -453 -306 -875 -590 -146 -98 -346 -233 -445 -300 -99 -67 -304
-205 -455 -307 -595 -400 -782 -526 -955 -643 -282 -190 -622 -420 -830 -560
-220 -148 -246 -170 -283 -245 -23 -46 -27 -68 -27 -135 0 -67 4 -89 28 -137
47 -97 135 -155 247 -165 99 -9 146 9 318 125 194 130 642 431 902 607 107 72
314 212 460 310 146 98 346 233 445 300 99 67 293 197 430 290 138 93 331 223
430 290 99 67 290 196 425 287 135 90 342 230 460 310 118 80 310 208 425 286
620 417 650 439 682 481 93 122 77 322 -35 423 -20 18 -109 78 -197 132 -88
55 -221 137 -295 184 -157 98 -184 115 -430 267 -228 140 -482 298 -558 346
-31 20 -111 69 -177 109 -66 41 -145 90 -177 109 -60 39 -282 176 -523 325
-82 51 -226 140 -320 198 -93 57 -249 154 -345 213 -96 60 -197 123 -225 140
-27 18 -128 80 -222 139 -194 119 -397 245 -1068 661 -181 112 -310 192 -690
427 -93 58 -246 153 -340 210 -93 58 -254 158 -357 222 -104 64 -272 168 -375
232 -104 64 -264 164 -358 222 -248 155 -288 174 -377 179 -53 3 -87 -1 -125
-15z"/>
<path d="M212 2966 c-123 -40 -202 -150 -202 -282 0 -132 51 -218 162 -273
110 -55 242 -39 333 41 71 62 99 126 99 223 1 91 -19 145 -73 208 -69 78 -216
116 -319 83z"/>
<path d="M172 1759 c-111 -55 -162 -141 -162 -273 0 -118 62 -216 169 -268 70
-35 186 -33 263 5 109 54 163 144 162 272 0 97 -28 161 -99 223 -57 50 -119
72 -205 72 -55 0 -78 -6 -128 -31z"/>
<path d="M1415 1389 c-87 -22 -167 -95 -206 -189 -37 -90 -7 -234 64 -308 58
-61 111 -85 197 -90 138 -8 239 49 297 165 71 146 5 332 -142 403 -50 24 -153
34 -210 19z"/>
<path d="M225 597 c-139 -46 -214 -146 -215 -283 0 -99 22 -158 85 -220 61
-61 125 -86 220 -85 172 1 308 150 292 321 -10 110 -78 210 -173 251 -57 25
-157 33 -209 16z"/>
</g>
</svg>
