<?xml version="1.0" ?><!DOCTYPE svg  PUBLIC '-//W3C//DTD SVG 1.1//EN'  'http://www.w3.org/Graphics/SVG/1.1/DTD/svg11.dtd'><svg enable-background="new 0 0 24 24" height="24px" id="Layer_1" version="1.1" viewBox="0 0 24 24" width="24px" xml:space="preserve" xmlns="http://www.w3.org/2000/svg" xmlns:xlink="http://www.w3.org/1999/xlink"><g><path d="M23.8,4.2c-0.2-1-0.4-2.3-0.8-3.2c-0.9-0.4-2.1-0.6-3.2-0.7C18.5,0.2,17.3,0,16,0C7.2,0,0,7.2,0,16c0,1.3-0.1,2.6,0.2,3.8   c0.2,1,0.4,2.3,0.8,3.2c0.9,0.4,2.2,0.6,3.2,0.8C5.5,23.9,6.7,24,8,24c8.8,0,16-7.2,16-16C24,6.7,24,5.5,23.8,4.2z M21.4,2.6   C22,4.2,22,6.2,22,8c0,0.3,0,0.6,0,0.9C19,7.4,16.6,5,15.1,2c0.3,0,0.6,0,0.9,0C17.8,2,19.8,2,21.4,2.6z M2.7,21.3   C2.1,19.7,2,17.8,2,16c0-0.3,0-0.6,0-0.9C5,16.6,7.4,19,8.9,22c-0.3,0-0.6,0-0.9,0C6.2,22,4.3,21.9,2.7,21.3z M10,21.8   c-1.7-3.4-4.5-6.1-7.9-7.9C3.1,7.9,7.9,3.1,14,2.2c1.7,3.4,4.5,6.1,7.9,7.9C20.9,16.1,16.1,20.9,10,21.8z"/><path d="M15.8,8.1c-0.2-0.2-0.5-0.2-0.7,0l-1.1,1.1L13,8.1c-0.2-0.2-0.5-0.2-0.7,0c-0.2,0.2-0.2,0.5,0,0.7l1.1,1.1L12,11.3   l-1.1-1.1c-0.2-0.2-0.5-0.2-0.7,0c-0.2,0.2-0.2,0.5,0,0.7l1.1,1.1l-1.4,1.4l-1.1-1.1c-0.2-0.2-0.5-0.2-0.7,0   c-0.2,0.2-0.2,0.5,0,0.7l1.1,1.1l-1.1,1.1c-0.2,0.2-0.2,0.5,0,0.7c0.2,0.2,0.5,0.2,0.7,0l1.1-1.1l1.1,1.1c0.2,0.2,0.5,0.2,0.7,0   c0.2-0.2,0.2-0.5,0-0.7l-1.1-1.1l1.4-1.4l1.1,1.1c0.2,0.2,0.5,0.2,0.7,0c0.2-0.2,0.2-0.5,0-0.7L12.7,12l1.4-1.4l1.1,1.1   c0.2,0.2,0.5,0.2,0.7,0c0.2-0.2,0.2-0.5,0-0.7l-1.1-1.1l1.1-1.1C16,8.6,16,8.3,15.8,8.1z"/></g></svg>