<?xml version="1.0" ?><svg height="100px" id="wallet" style="enable-background:new 0 0 100 100;" version="1.1" viewBox="0 0 100 100" width="100px" xml:space="preserve" xmlns="http://www.w3.org/2000/svg" xmlns:xlink="http://www.w3.org/1999/xlink"><path d="M91.115,51.873h-3.746v-3.746c0-6.181-5.619-9.365-11.238-9.365H19.939c-7.492,0-14.984-4.495-14.984-13.111  s7.492-13.111,14.984-13.111h58.439c7.492,0,12.737,5.245,12.737,13.111v9.365h-3.746V25.65c0-5.806-3.371-9.365-8.991-9.365H19.939  c-5.619,0-11.238,3.184-11.238,9.365s5.619,9.365,11.238,9.365h56.191c7.492,0,14.984,4.495,14.984,13.111V51.873z"/><path d="M78.004,87.461H18.066c-8.054,0-13.111-5.215-13.111-13.521V25.65h3.746V73.94c0,6.181,3.371,9.658,9.365,9.658h59.937  c5.619,0,9.365-3.863,9.365-9.658v-3.863h3.746v3.863C91.115,81.859,85.683,87.461,78.004,87.461z"/><rect height="3.746" width="58.064" x="17.13" y="20.031"/><rect height="3.746" width="39.334" x="35.86" y="27.523"/><path d="M91.115,72.477H79.877c-6.181,0-11.238-5.057-11.238-11.238C68.639,55.057,73.696,50,79.877,50h11.238  c3.184,0,5.619,2.435,5.619,5.619v11.238C96.734,70.042,94.299,72.477,91.115,72.477z M79.877,53.746  c-4.121,0-7.492,3.371-7.492,7.492c0,4.121,3.371,7.492,7.492,7.492h11.238c1.124,0,1.873-0.749,1.873-1.873V55.619  c0-1.124-0.749-1.873-1.873-1.873H79.877z"/><path d="M81.75,66.857c-3.184,0-5.619-2.435-5.619-5.619c0-3.184,2.435-5.619,5.619-5.619s5.619,2.435,5.619,5.619  C87.369,64.422,84.934,66.857,81.75,66.857z M81.75,59.365c-1.124,0-1.873,0.749-1.873,1.873s0.749,1.873,1.873,1.873  s1.873-0.749,1.873-1.873S82.874,59.365,81.75,59.365z"/></svg>