<?xml version="1.0" ?><!DOCTYPE svg  PUBLIC '-//W3C//DTD SVG 1.1//EN'  'http://www.w3.org/Graphics/SVG/1.1/DTD/svg11.dtd'><svg enable-background="new 0 0 24 24" height="24px" id="Layer_1" version="1.1" viewBox="0 0 24 24" width="24px" xml:space="preserve" xmlns="http://www.w3.org/2000/svg" xmlns:xlink="http://www.w3.org/1999/xlink"><path d="M22,4.6c-2.6-2.6-6.8-2.6-9.4,0c-0.2,0.2-0.5,0.5-0.7,0.8c-0.2-0.3-0.4-0.5-0.7-0.8C8.7,2,4.5,2,2,4.6  c-2.6,2.6-2.6,6.8,0,9.4l8.7,8.7L12,24l1.3-1.3L22,14C24.6,11.4,24.6,7.2,22,4.6z M12,21.7c0,0-8.1-8.7-8.7-8.7h5.2l1.5-2.5l4,5.4  l2-2.9h4.7C20.1,13,12,21.7,12,21.7z M21.4,12h-5.9L14,14.1l-4-5.2L8,12H2.6c-1.1-2-0.8-4.3,0.7-5.9C5.1,4.3,8.1,4.2,10,6  c0.4,0.4,2,2,2,2s1.6-1.6,2-2c1.8-1.8,4.8-1.7,6.7,0.2C22.3,7.7,22.5,10,21.4,12z"/></svg>