 <svg version="1.0" xmlns="http://www.w3.org/2000/svg" width="700.000000pt" height="700.000000pt" viewBox="0 0 700.000000 700.000000" preserveAspectRatio="xMidYMid meet">
<metadata>
Created by potrace 1.12, written by Peter Selinger 2001-2015
</metadata>
<g transform="translate(0.000000,700.000000) scale(0.100000,-0.100000)" fill="#000000" stroke="none">
<path d="M3668 6709 c-32 -4 -70 -15 -85 -22 -16 -8 -52 -22 -82 -32 -84 -28
-229 -140 -273 -214 -12 -20 -32 -48 -44 -63 -12 -15 -30 -51 -40 -80 -9 -29
-23 -62 -30 -73 -40 -62 -42 -307 -3 -393 12 -26 29 -70 39 -98 47 -135 219
-300 370 -357 187 -71 315 -74 485 -12 121 44 183 85 272 180 95 102 105 117
152 235 66 164 68 312 5 470 -52 133 -108 216 -190 283 -124 102 -109 93 -244
145 -85 33 -231 47 -332 31z m253 -289 c15 -8 46 -26 70 -39 64 -35 122 -97
166 -176 38 -70 38 -70 38 -185 l0 -115 -39 -70 c-50 -88 -102 -140 -191 -191
l-70 -39 -116 0 c-108 0 -118 2 -155 26 -22 14 -50 29 -62 33 -39 13 -117 97
-158 171 l-39 70 0 115 0 115 39 70 c47 84 97 138 151 167 22 11 47 27 56 35
30 25 72 32 179 30 69 -2 114 -8 131 -17z"></path>
<path d="M3120 5170 c-25 -5 -70 -20 -100 -34 -30 -14 -62 -26 -70 -26 -16 0
-52 -22 -115 -69 -22 -17 -65 -47 -95 -68 -30 -20 -85 -61 -122 -92 -88 -73
-140 -114 -208 -162 -88 -63 -138 -101 -188 -143 -26 -22 -79 -63 -119 -93
-39 -29 -98 -77 -130 -107 -60 -55 -137 -170 -149 -222 -3 -16 -19 -51 -34
-79 -15 -27 -31 -66 -35 -85 -4 -19 -23 -64 -41 -99 -19 -35 -34 -70 -34 -78
0 -8 -16 -44 -35 -80 -19 -36 -35 -73 -35 -82 0 -9 -16 -47 -35 -85 -19 -39
-35 -76 -35 -83 0 -8 -16 -44 -35 -80 -19 -36 -35 -73 -35 -82 0 -9 -15 -45
-32 -81 -31 -61 -33 -72 -32 -165 0 -97 2 -102 40 -171 54 -99 98 -144 190
-194 78 -44 80 -44 179 -44 98 -1 101 0 178 41 91 48 152 105 183 172 12 27
27 51 32 55 6 3 18 30 28 59 9 28 27 70 39 92 13 22 30 63 39 92 10 28 24 57
32 64 8 6 22 37 30 68 9 30 27 71 40 91 12 19 26 49 30 65 3 17 19 53 34 80
16 28 33 68 40 91 7 22 32 61 56 87 35 38 50 47 78 47 42 0 50 -17 31 -69 -8
-22 -18 -74 -24 -115 -6 -41 -18 -94 -27 -118 -22 -60 -44 -148 -44 -179 0
-15 -14 -71 -30 -124 -19 -61 -34 -138 -39 -204 -10 -113 -21 -171 -45 -238
-8 -23 -20 -86 -26 -139 -6 -54 -21 -134 -35 -178 -13 -45 -29 -123 -36 -175
-6 -51 -17 -114 -24 -140 -42 -148 -55 -182 -83 -217 -49 -61 -94 -118 -132
-168 -19 -26 -51 -67 -70 -90 -19 -24 -51 -65 -70 -90 -19 -26 -48 -63 -63
-81 -16 -19 -38 -48 -50 -64 -12 -16 -42 -55 -67 -87 -229 -290 -266 -354
-276 -479 -8 -101 6 -172 53 -260 51 -96 134 -174 241 -227 85 -42 89 -43 187
-42 96 0 103 2 185 42 70 34 103 59 183 138 54 53 110 113 123 133 55 82 187
253 243 316 10 11 23 29 29 41 6 12 26 39 44 61 18 23 49 62 68 88 19 25 48
62 63 80 32 39 64 82 104 140 15 22 37 51 49 65 28 32 82 183 100 280 16 87
59 203 85 226 25 23 45 13 130 -69 98 -94 126 -142 140 -242 6 -43 21 -107 34
-141 13 -34 29 -97 35 -140 7 -44 21 -101 31 -129 11 -27 29 -97 39 -155 11
-58 29 -129 40 -158 11 -29 25 -85 30 -125 16 -112 64 -202 157 -295 58 -58
98 -88 158 -117 78 -39 82 -40 185 -39 102 1 107 2 186 42 111 57 188 134 244
242 43 85 44 85 44 195 1 99 -2 116 -26 167 -15 32 -30 79 -33 105 -10 75 -26
144 -46 188 -9 22 -22 75 -28 117 -6 43 -20 104 -32 135 -12 32 -30 103 -39
158 -10 55 -28 121 -39 146 -12 26 -26 82 -32 125 -6 43 -21 103 -34 134 -12
30 -26 66 -30 80 -4 14 -33 58 -64 98 -31 41 -65 89 -76 107 -12 19 -33 45
-48 59 -15 14 -27 29 -27 35 0 5 -17 30 -37 54 -21 25 -54 68 -73 97 -19 28
-48 67 -63 85 -30 36 -52 66 -112 150 -19 28 -53 75 -75 105 -46 63 -50 95
-21 161 11 25 25 76 31 114 6 39 21 95 34 125 14 30 27 78 31 105 16 120 37
152 89 139 13 -3 56 -43 96 -90 62 -72 83 -89 147 -120 41 -19 114 -44 161
-54 48 -10 107 -27 132 -38 25 -11 74 -26 110 -32 36 -6 90 -22 121 -35 31
-13 84 -29 118 -34 34 -6 96 -22 139 -37 60 -22 96 -28 162 -28 80 -1 90 1
160 38 104 54 156 104 202 197 102 207 35 385 -210 553 -33 24 -70 38 -113 46
-35 6 -89 22 -119 35 -30 13 -81 29 -113 35 -32 7 -82 22 -111 36 -29 13 -80
28 -114 32 -72 10 -130 46 -158 97 -10 19 -22 35 -25 35 -4 0 -21 21 -38 48
-17 26 -42 63 -56 82 -14 19 -40 58 -59 85 -20 28 -47 66 -61 85 -41 56 -74
103 -92 134 -10 16 -32 45 -49 65 -17 20 -37 47 -44 60 -6 13 -27 44 -46 70
-18 25 -46 63 -61 84 -60 82 -148 158 -223 193 -19 9 -57 27 -85 40 -27 13
-77 28 -109 34 -69 12 -479 12 -546 0z m627 -323 c58 -37 83 -62 120 -120 l48
-72 0 -105 c0 -90 -4 -114 -26 -170 -15 -36 -32 -99 -39 -140 -7 -41 -23 -101
-36 -132 -13 -31 -29 -89 -35 -130 -6 -40 -20 -90 -31 -111 -11 -22 -26 -78
-34 -125 -8 -48 -26 -115 -39 -149 -13 -34 -29 -92 -35 -129 -6 -36 -21 -92
-34 -123 -13 -31 -29 -90 -36 -131 -7 -41 -24 -102 -38 -135 -17 -40 -25 -80
-26 -120 -1 -55 3 -66 41 -124 24 -35 54 -77 68 -95 49 -59 90 -114 130 -171
22 -31 54 -74 70 -95 17 -21 48 -61 70 -90 22 -29 54 -70 70 -91 17 -21 46
-62 65 -90 19 -28 49 -67 65 -87 28 -33 51 -68 90 -134 8 -15 22 -65 30 -110
8 -46 24 -107 35 -136 11 -29 25 -88 32 -130 6 -42 22 -105 35 -140 13 -35 28
-97 34 -138 5 -41 21 -104 35 -140 13 -36 29 -100 35 -142 6 -42 22 -104 35
-137 51 -125 45 -193 -24 -268 -54 -58 -93 -77 -157 -77 -59 0 -89 16 -147 77
-45 49 -51 63 -63 156 -4 27 -17 77 -30 112 -13 35 -31 103 -39 152 -7 48 -23
111 -34 138 -11 28 -25 86 -32 129 -6 43 -23 107 -36 143 -13 35 -29 95 -34
134 -6 38 -26 119 -46 179 l-37 110 -84 78 c-46 42 -112 104 -147 137 -66 62
-237 222 -361 335 -39 36 -94 83 -123 105 -129 98 -163 133 -205 212 l-42 78
1 110 c0 93 5 121 28 185 15 41 31 107 37 147 5 39 21 98 34 130 13 33 27 88
30 124 4 35 20 102 35 149 15 47 33 123 39 170 7 46 23 112 36 147 27 71 41
165 31 217 -5 28 -16 41 -56 65 -28 17 -62 31 -76 31 -31 0 -95 -33 -145 -75
-20 -16 -49 -38 -65 -48 -16 -9 -54 -35 -84 -57 -30 -22 -77 -56 -105 -75
-156 -110 -212 -162 -232 -215 -9 -25 -25 -57 -35 -72 -10 -15 -27 -51 -37
-80 -10 -29 -28 -69 -39 -88 -11 -19 -27 -58 -36 -87 -10 -28 -24 -57 -32 -64
-8 -6 -22 -37 -30 -68 -9 -30 -27 -71 -40 -91 -12 -19 -27 -54 -33 -76 -6 -23
-20 -53 -31 -67 -12 -15 -27 -48 -35 -75 -21 -71 -89 -132 -146 -132 -37 0
-48 6 -90 49 -42 42 -49 54 -49 89 0 25 11 61 29 95 16 31 36 80 45 110 9 30
23 60 31 67 8 7 22 38 31 69 9 31 27 74 39 96 13 22 30 65 39 96 9 31 22 62
30 69 8 6 22 36 30 65 9 29 29 79 46 110 16 31 30 64 30 74 0 9 16 47 35 85
19 39 35 75 35 81 0 14 80 98 130 137 65 50 213 163 240 183 15 11 53 40 85
65 110 87 140 110 190 145 28 19 69 49 91 67 120 95 165 127 224 160 36 20 74
38 85 41 11 3 135 5 275 4 l255 -2 72 -48z m474 -625 c24 -27 52 -61 61 -78
10 -16 38 -56 62 -89 25 -33 54 -76 65 -95 47 -81 132 -134 266 -167 33 -8 87
-23 120 -34 33 -11 87 -27 120 -36 33 -8 87 -24 120 -35 33 -11 92 -28 130
-39 58 -15 78 -27 113 -63 36 -38 42 -51 42 -87 0 -37 -6 -48 -50 -91 l-49
-50 -108 7 c-94 6 -111 10 -133 30 -15 14 -53 30 -93 39 -37 9 -81 23 -97 31
-16 8 -62 22 -102 30 -40 9 -100 26 -133 39 -34 13 -87 29 -120 35 -41 8 -68
20 -88 39 -48 45 -271 303 -279 320 -13 32 -8 64 21 135 15 40 32 95 36 122 8
59 21 85 39 85 7 0 33 -22 57 -48z m-1404 -1844 c30 -24 66 -50 79 -59 39 -25
174 -170 174 -186 0 -8 -11 -33 -25 -57 -14 -24 -29 -71 -34 -111 -6 -39 -22
-98 -35 -131 -14 -34 -30 -93 -36 -130 -11 -74 -52 -163 -103 -226 -83 -103
-105 -131 -142 -183 -22 -31 -56 -76 -75 -100 -19 -24 -48 -63 -65 -85 -16
-23 -44 -58 -60 -78 -17 -20 -39 -50 -50 -67 -10 -16 -27 -39 -37 -50 -73 -79
-88 -103 -88 -143 0 -37 -4 -43 -32 -58 -18 -9 -63 -43 -99 -75 -73 -65 -102
-79 -160 -79 -58 0 -98 21 -151 77 -71 77 -78 173 -17 249 16 20 29 40 29 43
0 4 15 23 33 43 36 41 69 85 157 203 97 129 103 137 155 200 28 33 63 78 78
100 15 22 42 58 60 81 17 22 51 65 74 95 146 189 136 172 148 263 3 32 13 77
21 100 22 61 32 112 44 217 13 114 25 154 53 174 32 22 42 19 104 -27z"></path>
</g>
</svg>