 <svg version="1.0" xmlns="http://www.w3.org/2000/svg" width="700.000000pt" height="700.000000pt" viewBox="0 0 700.000000 700.000000" preserveAspectRatio="xMidYMid meet">
<metadata>
Created by potrace 1.12, written by Peter Selinger 2001-2015
</metadata>
<g transform="translate(0.000000,700.000000) scale(0.100000,-0.100000)" fill="#000000" stroke="none">
<path d="M2455 6355 c-38 -7 -86 -20 -105 -28 -19 -9 -64 -20 -100 -27 -36 -6
-87 -24 -115 -40 -27 -15 -63 -30 -78 -34 -16 -4 -51 -22 -79 -41 -28 -19 -54
-35 -59 -35 -15 0 -163 -131 -207 -184 -24 -28 -57 -66 -73 -84 -16 -18 -29
-37 -29 -43 0 -6 -13 -29 -29 -52 -15 -23 -36 -66 -46 -96 -10 -30 -26 -68
-36 -85 -10 -17 -25 -74 -33 -127 -9 -53 -20 -109 -26 -123 -18 -48 -32 -258
-25 -376 3 -63 15 -160 25 -215 11 -55 26 -153 35 -217 8 -64 22 -136 30 -159
19 -52 19 -93 1 -108 -8 -7 -31 -56 -52 -109 -47 -122 -50 -188 -11 -310 15
-46 27 -93 27 -105 0 -12 8 -36 18 -54 9 -17 29 -54 45 -82 15 -28 31 -51 36
-51 5 0 34 -20 63 -44 51 -42 57 -50 86 -141 18 -53 32 -106 32 -118 0 -18 35
-104 86 -212 17 -35 41 -71 104 -158 43 -59 45 -64 48 -143 6 -119 -15 -407
-31 -447 -21 -49 -197 -207 -232 -207 -6 0 -35 -16 -65 -35 -30 -19 -62 -35
-71 -35 -9 0 -46 -16 -82 -35 -36 -19 -72 -35 -80 -35 -8 0 -40 -13 -72 -30
-31 -16 -79 -36 -107 -45 -27 -8 -64 -23 -81 -34 -18 -10 -52 -24 -77 -31 -25
-6 -67 -24 -95 -40 -27 -15 -64 -31 -81 -34 -17 -4 -46 -18 -64 -31 -18 -14
-49 -30 -69 -36 -20 -7 -54 -24 -76 -39 -37 -25 -59 -39 -139 -87 -42 -26
-188 -153 -238 -208 -24 -26 -58 -62 -76 -81 -17 -18 -32 -37 -32 -42 0 -5
-16 -33 -36 -62 -20 -29 -41 -66 -47 -84 -6 -17 -21 -47 -33 -66 -12 -19 -28
-62 -34 -95 -14 -69 -33 -110 -55 -118 -13 -5 -15 -34 -15 -192 l0 -185 2798
2 2797 3 -2 146 c-1 126 -5 155 -26 216 -14 40 -31 98 -37 130 -6 32 -22 74
-35 93 -12 19 -31 59 -40 89 -30 93 -97 86 780 89 l765 2 0 170 c0 157 -1 169
-19 175 -20 6 -51 71 -51 108 0 23 -19 64 -73 158 -57 100 -72 122 -97 148
-14 14 -32 35 -40 47 -24 33 -172 159 -210 179 -19 10 -48 28 -63 41 -16 13
-34 24 -40 24 -7 0 -32 14 -57 30 -25 16 -61 35 -80 42 -19 6 -51 21 -70 34
-19 13 -48 26 -65 30 -16 4 -55 19 -85 34 -31 16 -76 33 -100 40 -41 10 -85
29 -255 111 -33 16 -67 29 -75 29 -45 0 -207 127 -254 199 -30 45 -30 49 -37
216 -6 178 -1 221 33 265 44 57 69 98 93 150 14 30 34 71 44 90 11 19 24 62
31 95 21 111 30 127 115 215 65 67 85 95 94 130 7 25 22 68 33 95 17 38 23 77
26 157 4 105 4 109 -28 170 -31 58 -32 66 -27 142 2 45 14 109 25 143 33 100
41 163 48 382 7 239 -5 411 -35 468 -10 21 -26 60 -35 87 -20 57 -76 152 -125
208 -49 56 -148 129 -205 150 -27 11 -65 27 -85 37 -20 10 -55 22 -79 26 -24
4 -59 20 -82 38 -84 68 -127 94 -180 112 -30 10 -73 28 -95 39 -38 20 -55 21
-305 21 -252 0 -268 -1 -325 -23 -33 -12 -90 -30 -127 -38 -67 -15 -215 -85
-265 -123 -45 -36 -144 -24 -182 22 -6 9 -35 18 -64 22 -74 10 -93 20 -157 75
-120 104 -227 157 -395 196 -80 18 -520 17 -620 -1z m585 -276 c30 -6 69 -19
86 -29 17 -9 47 -23 66 -29 22 -7 58 -35 90 -71 46 -49 64 -61 114 -75 32 -9
87 -27 122 -41 34 -13 68 -24 75 -24 8 0 45 -24 82 -53 76 -58 170 -172 180
-219 4 -17 18 -54 32 -84 36 -79 49 -284 35 -534 -9 -149 -16 -203 -36 -266
-14 -43 -30 -115 -36 -158 -5 -44 -22 -105 -36 -135 -14 -31 -28 -77 -31 -102
-5 -46 -5 -48 56 -113 60 -64 61 -67 61 -122 0 -63 -51 -240 -79 -275 -11 -14
-42 -28 -86 -38 -38 -9 -72 -24 -76 -31 -4 -8 -12 -64 -18 -123 -7 -69 -18
-125 -32 -155 -12 -26 -27 -69 -34 -96 -8 -26 -24 -65 -37 -85 -13 -20 -30
-52 -38 -71 -7 -19 -23 -46 -35 -60 -13 -14 -28 -35 -34 -47 -6 -13 -25 -30
-40 -38 -19 -10 -32 -26 -37 -47 -10 -44 -7 -517 4 -638 8 -86 13 -100 46
-150 83 -123 170 -205 300 -287 61 -39 249 -133 265 -133 7 0 42 -16 78 -35
36 -19 73 -35 82 -35 9 0 47 -16 85 -35 39 -19 79 -35 90 -35 12 0 52 -16 90
-35 39 -19 77 -35 87 -35 9 0 33 -11 54 -25 20 -14 58 -34 84 -44 25 -10 64
-30 85 -44 21 -15 45 -27 52 -27 7 0 28 -13 46 -29 18 -15 45 -34 60 -42 44
-23 228 -189 252 -228 13 -20 30 -42 39 -49 9 -8 21 -30 28 -50 7 -20 22 -53
35 -72 12 -19 30 -71 38 -115 17 -79 17 -80 -5 -97 -20 -17 -152 -18 -2449
-18 -2297 0 -2429 1 -2449 18 -21 17 -21 19 -7 92 17 84 70 196 133 281 45 61
204 214 243 234 14 7 49 29 79 49 29 20 58 36 64 36 5 0 25 12 44 26 19 14 49
30 67 35 19 5 49 20 69 33 19 13 60 31 91 40 30 9 70 25 88 35 18 11 58 26 89
35 31 9 76 27 100 41 24 14 51 25 60 25 10 0 42 13 72 29 30 16 72 34 93 41
22 7 53 21 69 30 17 10 55 28 87 40 31 11 62 28 69 36 7 8 29 23 50 33 100 49
285 239 320 329 27 69 50 627 30 714 -6 26 -27 56 -68 96 -32 33 -70 81 -83
108 -14 26 -37 68 -52 93 -16 25 -28 54 -28 65 0 12 -14 50 -31 86 -25 53 -33
87 -41 180 -6 63 -16 120 -22 126 -6 6 -36 16 -68 23 -31 7 -67 22 -80 34 -34
32 -88 202 -88 278 0 58 1 61 55 119 30 32 57 71 61 86 6 24 -6 83 -51 244 -8
30 -15 69 -15 86 0 18 -12 90 -27 161 -24 114 -27 151 -27 333 -1 164 2 216
16 260 9 30 24 92 33 136 15 75 48 152 120 274 47 79 186 205 263 237 19 8 46
23 61 33 14 11 49 24 76 30 28 6 84 22 125 37 51 17 110 28 185 33 131 10 388
3 465 -11z m1712 -128 c82 -8 106 -14 167 -46 39 -21 87 -56 108 -79 54 -60
66 -66 155 -82 136 -24 236 -103 302 -238 46 -95 55 -155 55 -356 1 -220 -14
-372 -43 -459 -14 -40 -29 -97 -32 -125 -4 -28 -15 -75 -26 -105 -27 -79 -24
-92 23 -119 55 -32 73 -76 64 -157 -6 -60 -50 -156 -83 -182 -9 -7 -31 -13
-51 -13 -55 0 -71 -22 -71 -99 -1 -41 -8 -87 -21 -121 -11 -30 -30 -84 -41
-120 -11 -36 -27 -72 -34 -80 -7 -9 -23 -38 -35 -65 -13 -29 -46 -72 -81 -106
l-60 -57 4 -283 5 -284 31 -60 c18 -33 32 -64 32 -70 0 -17 153 -170 195 -195
22 -13 49 -31 60 -40 11 -9 36 -23 55 -31 19 -7 50 -24 69 -36 19 -13 52 -28
75 -34 22 -6 59 -22 81 -34 22 -13 60 -29 85 -35 25 -7 58 -21 73 -32 16 -11
53 -27 84 -35 30 -8 72 -25 92 -38 20 -13 55 -28 77 -34 23 -6 57 -22 76 -35
20 -13 51 -29 71 -35 19 -7 41 -19 48 -27 7 -9 31 -25 53 -36 44 -22 139 -101
207 -173 75 -79 131 -188 133 -259 1 -44 -2 -52 -24 -63 -20 -10 -172 -13
-720 -12 -382 0 -714 4 -737 8 -23 4 -57 20 -75 35 -49 41 -96 72 -160 105
-31 17 -59 35 -62 40 -4 5 -28 17 -54 27 -26 10 -59 26 -74 36 -15 10 -46 25
-70 34 -24 8 -59 25 -78 38 -19 13 -51 27 -70 31 -19 4 -57 19 -85 34 -27 15
-72 33 -98 40 -27 6 -65 22 -85 36 -20 13 -57 29 -81 35 -24 6 -60 22 -80 35
-20 13 -56 29 -81 35 -25 7 -58 21 -74 33 -16 11 -46 30 -67 41 -125 70 -225
167 -239 234 -12 56 -23 393 -15 457 5 40 14 65 34 88 16 18 38 50 49 73 11
22 27 46 36 53 8 7 20 29 27 49 6 20 24 64 40 97 24 52 50 132 91 280 13 48
37 77 99 117 26 16 52 42 58 56 7 15 23 43 37 62 13 20 28 60 34 90 6 30 20
84 32 120 40 120 32 175 -63 407 -11 28 -11 39 5 82 10 28 22 81 26 118 5 37
18 96 29 131 35 107 43 212 39 508 -3 263 -5 282 -27 339 -12 33 -29 85 -38
115 -8 30 -28 77 -45 105 -17 27 -33 66 -35 87 -5 31 -1 42 24 67 16 16 50 35
74 41 24 7 71 23 103 37 48 20 86 26 185 32 179 11 204 11 313 2z"></path>
</g>
</svg>