 <svg version="1.0" xmlns="http://www.w3.org/2000/svg" width="700.000000pt" height="700.000000pt" viewBox="0 0 700.000000 700.000000" preserveAspectRatio="xMidYMid meet">
<metadata>
Created by potrace 1.12, written by Peter Selinger 2001-2015
</metadata>
<g transform="translate(0.000000,700.000000) scale(0.100000,-0.100000)" fill="#000000" stroke="none">
<path d="M3320 6709 c-30 -5 -79 -18 -108 -29 -29 -11 -74 -25 -100 -31 -26
-5 -60 -21 -77 -34 -17 -13 -47 -30 -67 -38 -19 -8 -54 -29 -78 -46 -24 -17
-47 -31 -52 -31 -5 0 -24 -15 -41 -32 -18 -18 -55 -54 -82 -81 -28 -26 -63
-64 -80 -84 -42 -51 -115 -164 -115 -178 0 -6 -11 -27 -25 -46 -14 -19 -33
-59 -41 -89 -9 -30 -28 -89 -42 -130 -25 -71 -27 -86 -27 -260 0 -182 1 -187
32 -275 17 -49 34 -103 38 -120 3 -16 19 -50 35 -75 15 -25 31 -56 35 -70 14
-49 179 -250 238 -292 18 -12 43 -33 57 -46 39 -37 112 -86 150 -102 19 -7 47
-24 62 -36 15 -12 51 -27 80 -33 29 -7 86 -23 126 -37 131 -45 458 -42 551 5
20 10 62 24 94 31 31 6 70 22 85 35 15 12 43 29 63 38 34 14 89 51 169 114 54
44 169 163 213 222 54 73 125 212 137 269 6 26 19 70 30 97 41 104 52 313 25
450 -34 176 -111 361 -195 468 -25 32 -54 71 -66 87 -23 31 -171 160 -226 197
-18 13 -53 32 -78 44 -25 12 -55 30 -66 41 -12 11 -53 27 -90 37 -38 10 -86
25 -106 34 -80 34 -325 48 -458 26z m407 -303 c28 -14 70 -28 92 -32 60 -10
183 -94 276 -189 80 -81 167 -211 181 -270 3 -16 18 -57 33 -90 24 -57 25 -70
25 -225 0 -155 -1 -168 -25 -225 -15 -33 -29 -73 -33 -89 -8 -34 -73 -145
-113 -196 -56 -69 -169 -173 -213 -195 -25 -12 -63 -32 -85 -44 -63 -33 -166
-72 -215 -81 -25 -5 -92 -9 -150 -9 -58 0 -125 4 -150 9 -49 9 -152 48 -215
81 -22 12 -60 32 -85 44 -65 33 -221 188 -255 256 -10 19 -26 45 -36 58 -11
13 -25 45 -33 70 -8 25 -25 69 -38 96 -21 46 -23 62 -23 225 0 163 2 178 24
225 13 28 29 71 36 96 23 84 126 223 236 318 98 84 156 119 227 138 31 8 70
22 87 31 46 25 107 31 261 27 128 -2 145 -5 191 -29z"></path>
<path d="M2385 4191 c-38 -4 -105 -20 -147 -34 -42 -15 -84 -27 -94 -27 -20 0
-199 -85 -224 -106 -8 -7 -34 -23 -57 -36 -69 -39 -145 -102 -221 -183 -77
-83 -92 -101 -206 -270 -42 -60 -93 -135 -115 -165 -23 -30 -48 -71 -56 -90
-9 -19 -27 -46 -39 -60 -13 -14 -33 -43 -45 -65 -23 -42 -56 -92 -91 -137 -11
-15 -27 -42 -35 -61 -8 -19 -25 -48 -38 -63 -14 -16 -32 -45 -41 -64 -15 -33
-30 -57 -83 -133 -13 -18 -32 -50 -43 -73 -10 -22 -33 -58 -50 -79 -16 -21
-30 -44 -30 -51 0 -7 -11 -26 -25 -42 -13 -16 -34 -51 -46 -78 -11 -27 -27
-56 -35 -66 -9 -9 -24 -47 -34 -85 -10 -37 -26 -86 -36 -108 -21 -49 -32 -252
-16 -305 34 -109 73 -203 96 -231 14 -17 26 -37 26 -45 0 -7 17 -32 38 -55 83
-91 772 -776 810 -805 30 -23 67 -37 139 -54 143 -33 186 -30 400 32 33 9 46
9 54 1 16 -16 28 -91 28 -176 1 -37 7 -82 15 -100 19 -47 80 -97 117 -97 62 0
133 61 144 124 8 39 -10 276 -30 396 -14 84 -25 217 -45 540 -6 91 -17 205
-25 254 -13 83 -18 139 -46 541 -5 88 -19 219 -29 290 -10 72 -22 191 -26 265
-7 144 -14 168 -63 214 -26 25 -39 30 -81 29 -42 -1 -56 -6 -89 -34 -21 -19
-44 -43 -50 -54 -6 -11 -33 -47 -61 -80 -27 -33 -58 -76 -69 -95 -18 -34 -43
-68 -111 -155 -34 -43 -145 -193 -170 -229 -7 -11 -44 -61 -80 -111 -37 -49
-74 -109 -83 -133 -42 -107 -27 -130 333 -487 267 -266 305 -307 332 -364 35
-76 34 -97 -12 -194 -30 -63 -34 -68 -102 -102 -150 -75 -160 -69 -632 405
-373 374 -375 376 -418 465 -40 83 -43 96 -43 170 1 62 6 91 24 130 13 28 30
73 38 100 8 28 25 64 37 80 12 17 28 46 36 65 7 19 23 46 35 60 13 14 33 43
44 65 12 22 36 63 54 91 18 28 41 65 52 83 11 18 30 47 42 65 12 17 34 52 47
78 14 26 30 49 36 53 6 4 22 27 36 53 13 26 35 61 47 78 12 18 31 47 42 65 18
30 42 68 102 160 23 35 66 99 108 159 14 19 33 48 42 63 10 16 33 48 50 70 18
23 33 48 33 55 0 40 235 249 317 281 17 7 39 21 48 31 9 10 40 24 68 31 29 6
68 20 87 29 19 10 59 23 88 29 66 14 317 15 342 1 11 -6 26 -33 35 -64 9 -30
23 -60 31 -66 8 -7 21 -38 30 -69 9 -31 29 -78 44 -106 15 -27 31 -66 35 -85
4 -19 21 -58 36 -86 16 -28 29 -57 29 -65 0 -9 16 -46 35 -85 19 -38 35 -76
35 -85 0 -8 16 -46 35 -85 19 -38 35 -76 35 -85 0 -8 16 -46 35 -85 19 -38 35
-76 35 -85 0 -9 15 -45 34 -80 18 -35 37 -80 41 -99 4 -19 19 -53 33 -75 37
-56 37 -140 1 -210 -14 -27 -31 -72 -38 -98 -6 -27 -23 -70 -36 -95 -13 -26
-29 -69 -35 -95 -6 -27 -22 -70 -35 -95 -17 -32 -25 -63 -25 -98 0 -60 14 -77
80 -94 24 -7 65 -22 90 -35 25 -12 72 -28 105 -35 33 -7 80 -22 105 -35 25
-12 67 -25 93 -27 l48 -6 40 54 c25 34 45 76 55 116 9 35 26 81 39 103 12 22
28 65 35 95 7 30 21 71 32 90 11 19 29 65 39 102 10 36 28 83 40 103 22 36 28
91 15 133 -5 15 -22 26 -56 36 -80 24 -90 32 -90 74 0 54 23 129 58 196 18 32
32 65 32 73 0 7 16 46 35 86 19 39 35 79 35 88 0 9 13 41 29 71 16 30 34 74
41 99 6 24 22 60 35 79 12 19 28 57 34 84 7 27 21 62 32 77 11 16 27 51 35 78
8 27 28 75 44 106 17 32 30 64 30 74 0 9 16 47 35 85 19 39 35 78 35 88 0 10
11 25 25 34 22 14 49 16 193 12 154 -4 171 -6 225 -31 32 -14 73 -29 92 -33
18 -3 58 -21 87 -40 29 -19 58 -34 64 -34 6 0 17 -7 24 -15 6 -8 35 -30 63
-49 102 -69 177 -154 265 -300 9 -16 31 -45 48 -65 17 -20 34 -45 38 -56 4
-11 20 -38 37 -60 51 -68 77 -108 100 -150 12 -22 32 -53 45 -68 13 -16 24
-34 24 -40 0 -7 13 -28 29 -47 15 -19 36 -51 46 -70 10 -19 27 -47 39 -62 12
-14 39 -56 61 -92 22 -37 50 -81 62 -99 13 -17 30 -48 39 -67 9 -19 23 -43 32
-53 9 -11 28 -38 42 -61 14 -24 34 -58 45 -75 58 -95 86 -147 91 -170 4 -14
20 -57 37 -96 26 -60 31 -82 31 -155 0 -79 -3 -91 -39 -160 -48 -94 -93 -146
-344 -395 -111 -110 -259 -258 -329 -328 -100 -102 -140 -135 -189 -158 -80
-38 -111 -37 -193 7 -60 31 -72 42 -100 96 -42 78 -44 134 -8 208 21 44 86
114 328 355 361 359 377 381 331 488 -17 40 -51 92 -113 171 -13 16 -32 44
-43 62 -25 40 -133 187 -173 234 -16 19 -35 46 -42 59 -6 13 -33 50 -58 83
-26 33 -59 77 -73 99 -14 22 -53 70 -87 108 -51 57 -69 70 -101 76 -47 8 -85
-9 -128 -58 -29 -33 -30 -37 -37 -173 -4 -76 -11 -168 -15 -204 -5 -36 -16
-117 -25 -180 -8 -63 -20 -212 -26 -330 -6 -118 -17 -260 -25 -315 -25 -171
-35 -282 -45 -487 -5 -109 -18 -260 -29 -336 -11 -75 -25 -201 -32 -280 -14
-172 -8 -203 52 -257 38 -34 46 -37 86 -32 83 9 132 79 134 189 1 84 13 166
26 179 8 8 46 2 135 -21 67 -18 148 -32 178 -32 88 0 216 36 280 79 30 21 215
199 410 395 420 423 414 416 436 459 9 19 26 47 38 64 11 16 31 57 42 90 12
33 29 78 37 100 11 27 16 74 17 142 0 88 -4 116 -30 193 -16 50 -30 96 -30
102 0 20 -91 201 -117 231 -13 16 -23 33 -23 39 0 6 -11 25 -24 42 -13 17 -33
51 -46 76 -12 25 -30 53 -39 63 -8 11 -27 38 -41 61 -43 73 -64 107 -97 157
-18 27 -33 53 -33 58 0 5 -16 30 -35 55 -19 26 -35 50 -35 55 0 4 -16 28 -35
52 -19 24 -35 49 -35 56 0 7 -13 27 -29 45 -15 18 -36 49 -46 68 -9 19 -25 43
-33 53 -9 10 -25 33 -37 51 -38 62 -84 131 -110 166 -26 35 -52 72 -98 140
-67 97 -224 244 -320 298 -23 13 -49 29 -57 36 -24 21 -204 106 -223 106 -9 0
-58 15 -109 32 l-93 33 -1100 1 c-605 1 -1131 -2 -1170 -5z m1579 -287 c21
-21 21 -26 -14 -87 -16 -30 -30 -61 -30 -69 0 -9 -13 -41 -30 -73 -16 -31 -34
-75 -41 -98 -6 -23 -21 -58 -34 -77 -12 -19 -28 -57 -34 -84 -7 -27 -21 -63
-33 -78 -11 -16 -26 -51 -33 -79 -7 -27 -23 -66 -35 -87 -13 -20 -29 -58 -36
-84 -8 -26 -28 -72 -44 -103 -17 -32 -30 -66 -30 -77 0 -10 -7 -32 -15 -48
-34 -66 -98 -40 -126 51 -9 30 -25 70 -37 89 -11 19 -26 55 -32 80 -7 25 -23
63 -35 85 -13 22 -31 65 -40 97 -9 31 -23 62 -31 68 -8 7 -22 38 -30 69 -9 31
-30 80 -45 110 -16 30 -29 62 -29 71 0 9 -13 42 -30 73 -16 30 -34 76 -41 101
-6 25 -22 60 -35 77 -28 38 -30 52 -8 73 14 14 70 16 464 16 394 0 450 -2 464
-16z m-1961 -1561 c5 -8 15 -140 37 -471 17 -247 5 -250 -192 -50 -77 79 -144
150 -148 158 -6 11 5 35 36 80 24 36 60 88 78 115 19 28 41 56 49 63 8 7 20
25 26 41 17 39 101 86 114 64z m3054 -13 c18 -10 44 -36 58 -57 14 -21 45 -65
70 -98 24 -33 53 -76 64 -96 11 -19 27 -41 35 -48 35 -29 18 -55 -128 -204
-201 -206 -213 -202 -196 55 23 351 31 442 42 455 14 17 17 17 55 -7z"></path>
</g>
</svg>